<?xml version="1.0" encoding="UTF-8" standalone="no"?>
<!DOCTYPE svg PUBLIC "-//W3C//DTD SVG 1.1//EN"
 "http://www.w3.org/Graphics/SVG/1.1/DTD/svg11.dtd">
<!-- Generated by graphviz version 2.43.0 (0)
 -->
<!-- Title: G Pages: 1 -->
<svg width="555pt" height="277pt"
 viewBox="0.00 0.00 555.05 277.00" xmlns="http://www.w3.org/2000/svg" xmlns:xlink="http://www.w3.org/1999/xlink">
<g id="graph0" class="graph" transform="scale(1 1) rotate(0) translate(4 273)">
<title>G</title>
<polygon fill="white" stroke="transparent" points="-4,4 -4,-273 551.05,-273 551.05,4 -4,4"/>
<!-- answer -->
<g id="node1" class="node">
<title>answer</title>
<ellipse fill="none" stroke="black" cx="290.05" cy="-251" rx="44.39" ry="18"/>
<text text-anchor="middle" x="290.05" y="-247.3" font-family="Times,serif" font-size="14.00">answer</text>
</g>
<!-- intro -->
<g id="node2" class="node">
<title>intro</title>
<ellipse fill="none" stroke="black" cx="290.05" cy="-178" rx="33.29" ry="18"/>
<text text-anchor="middle" x="290.05" y="-174.3" font-family="Times,serif" font-size="14.00">intro</text>
</g>
<!-- answer&#45;&gt;intro -->
<g id="edge1" class="edge">
<title>answer&#45;&gt;intro</title>
<path fill="none" stroke="black" d="M290.05,-232.81C290.05,-224.79 290.05,-215.05 290.05,-206.07"/>
<polygon fill="black" stroke="black" points="293.55,-206.03 290.05,-196.03 286.55,-206.03 293.55,-206.03"/>
</g>
<!-- waitForInput -->
<g id="node3" class="node">
<title>waitForInput</title>
<ellipse fill="none" stroke="black" cx="290.05" cy="-105" rx="71.49" ry="18"/>
<text text-anchor="middle" x="290.05" y="-101.3" font-family="Times,serif" font-size="14.00">waitForInput</text>
</g>
<!-- intro&#45;&gt;waitForInput -->
<g id="edge2" class="edge">
<title>intro&#45;&gt;waitForInput</title>
<path fill="none" stroke="black" d="M290.05,-159.81C290.05,-151.79 290.05,-142.05 290.05,-133.07"/>
<polygon fill="black" stroke="black" points="293.55,-133.03 290.05,-123.03 286.55,-133.03 293.55,-133.03"/>
</g>
<!-- waitForInput&#45;&gt;waitForInput -->
<g id="edge9" class="edge">
<title>waitForInput&#45;&gt;waitForInput</title>
<path fill="none" stroke="black" d="M356.79,-111.47C370.07,-110.74 379.54,-108.59 379.54,-105 379.54,-102.42 374.65,-100.58 366.96,-99.48"/>
<polygon fill="black" stroke="black" points="367.07,-95.98 356.79,-98.53 366.42,-102.95 367.07,-95.98"/>
<text text-anchor="middle" x="418.54" y="-101.3" font-family="Times,serif" font-size="14.00">7,8,9,0,#,*</text>
</g>
<!-- chase -->
<g id="node4" class="node">
<title>chase</title>
<ellipse fill="none" stroke="black" cx="37.05" cy="-18" rx="37.09" ry="18"/>
<text text-anchor="middle" x="37.05" y="-14.3" font-family="Times,serif" font-size="14.00">chase</text>
</g>
<!-- waitForInput&#45;&gt;chase -->
<g id="edge3" class="edge">
<title>waitForInput&#45;&gt;chase</title>
<path fill="none" stroke="black" d="M223.03,-98.54C169.46,-93.18 99.44,-83.66 75.05,-69 65.13,-63.04 56.91,-53.43 50.68,-44.23"/>
<polygon fill="black" stroke="black" points="53.59,-42.28 45.32,-35.65 47.65,-45.99 53.59,-42.28"/>
<text text-anchor="middle" x="80.05" y="-57.8" font-family="Times,serif" font-size="14.00">1</text>
</g>
<!-- rocky -->
<g id="node5" class="node">
<title>rocky</title>
<ellipse fill="none" stroke="black" cx="128.05" cy="-18" rx="36.29" ry="18"/>
<text text-anchor="middle" x="128.05" y="-14.3" font-family="Times,serif" font-size="14.00">rocky</text>
</g>
<!-- waitForInput&#45;&gt;rocky -->
<g id="edge4" class="edge">
<title>waitForInput&#45;&gt;rocky</title>
<path fill="none" stroke="black" d="M224.06,-97.92C200.36,-93.05 174.68,-84.38 155.05,-69 147.37,-62.99 141.6,-54.17 137.41,-45.6"/>
<polygon fill="black" stroke="black" points="140.52,-43.98 133.32,-36.2 134.1,-46.77 140.52,-43.98"/>
<text text-anchor="middle" x="160.05" y="-57.8" font-family="Times,serif" font-size="14.00">2</text>
</g>
<!-- marshall -->
<g id="node6" class="node">
<title>marshall</title>
<ellipse fill="none" stroke="black" cx="234.05" cy="-18" rx="51.19" ry="18"/>
<text text-anchor="middle" x="234.05" y="-14.3" font-family="Times,serif" font-size="14.00">marshall</text>
</g>
<!-- waitForInput&#45;&gt;marshall -->
<g id="edge5" class="edge">
<title>waitForInput&#45;&gt;marshall</title>
<path fill="none" stroke="black" d="M267.15,-87.69C260.9,-82.33 254.6,-75.94 250.05,-69 245.53,-62.11 242.2,-53.86 239.8,-46.05"/>
<polygon fill="black" stroke="black" points="243.12,-44.95 237.13,-36.22 236.37,-46.78 243.12,-44.95"/>
<text text-anchor="middle" x="255.05" y="-57.8" font-family="Times,serif" font-size="14.00">3</text>
</g>
<!-- rubble -->
<g id="node7" class="node">
<title>rubble</title>
<ellipse fill="none" stroke="black" cx="344.05" cy="-18" rx="40.89" ry="18"/>
<text text-anchor="middle" x="344.05" y="-14.3" font-family="Times,serif" font-size="14.00">rubble</text>
</g>
<!-- waitForInput&#45;&gt;rubble -->
<g id="edge6" class="edge">
<title>waitForInput&#45;&gt;rubble</title>
<path fill="none" stroke="black" d="M298.85,-87.02C304.12,-77.19 311.12,-64.69 318.05,-54 320.25,-50.59 322.67,-47.08 325.12,-43.65"/>
<polygon fill="black" stroke="black" points="328.07,-45.56 331.17,-35.42 322.43,-41.41 328.07,-45.56"/>
<text text-anchor="middle" x="323.05" y="-57.8" font-family="Times,serif" font-size="14.00">4</text>
</g>
<!-- zuma -->
<g id="node8" class="node">
<title>zuma</title>
<ellipse fill="none" stroke="black" cx="439.05" cy="-18" rx="36" ry="18"/>
<text text-anchor="middle" x="439.05" y="-14.3" font-family="Times,serif" font-size="14.00">zuma</text>
</g>
<!-- waitForInput&#45;&gt;zuma -->
<g id="edge7" class="edge">
<title>waitForInput&#45;&gt;zuma</title>
<path fill="none" stroke="black" d="M317.72,-88.21C343.17,-73.7 380.87,-52.19 407.48,-37.01"/>
<polygon fill="black" stroke="black" points="409.44,-39.92 416.39,-31.92 405.97,-33.84 409.44,-39.92"/>
<text text-anchor="middle" x="379.05" y="-57.8" font-family="Times,serif" font-size="14.00">5</text>
</g>
<!-- sky -->
<g id="node9" class="node">
<title>sky</title>
<ellipse fill="none" stroke="black" cx="520.05" cy="-18" rx="27" ry="18"/>
<text text-anchor="middle" x="520.05" y="-14.3" font-family="Times,serif" font-size="14.00">sky</text>
</g>
<!-- waitForInput&#45;&gt;sky -->
<g id="edge8" class="edge">
<title>waitForInput&#45;&gt;sky</title>
<path fill="none" stroke="black" d="M338.98,-91.77C361.49,-85.69 388.39,-77.76 412.05,-69 445.06,-56.78 452.13,-50.85 484.05,-36 485.83,-35.17 487.67,-34.31 489.52,-33.45"/>
<polygon fill="black" stroke="black" points="491.18,-36.53 498.75,-29.11 488.21,-30.2 491.18,-36.53"/>
<text text-anchor="middle" x="453.05" y="-57.8" font-family="Times,serif" font-size="14.00">6</text>
</g>
<!-- chase&#45;&gt;waitForInput -->
<g id="edge10" class="edge">
<title>chase&#45;&gt;waitForInput</title>
<path fill="none" stroke="black" d="M60.29,-32.3C80.54,-43.42 110.99,-59.02 139.05,-69 166.02,-78.6 196.66,-86.26 223.26,-91.94"/>
<polygon fill="black" stroke="black" points="222.73,-95.41 233.24,-94.03 224.16,-88.56 222.73,-95.41"/>
</g>
<!-- rocky&#45;&gt;waitForInput -->
<g id="edge11" class="edge">
<title>rocky&#45;&gt;waitForInput</title>
<path fill="none" stroke="black" d="M152.03,-31.59C178.15,-45.29 220.29,-67.4 251.15,-83.59"/>
<polygon fill="black" stroke="black" points="249.85,-86.86 260.33,-88.41 253.1,-80.66 249.85,-86.86"/>
</g>
<!-- marshall&#45;&gt;waitForInput -->
<g id="edge12" class="edge">
<title>marshall&#45;&gt;waitForInput</title>
<path fill="none" stroke="black" d="M246.82,-35.49C251.14,-41.26 255.92,-47.83 260.05,-54 265.23,-61.74 270.56,-70.38 275.26,-78.26"/>
<polygon fill="black" stroke="black" points="272.36,-80.23 280.45,-87.08 278.39,-76.68 272.36,-80.23"/>
</g>
<!-- rubble&#45;&gt;waitForInput -->
<g id="edge13" class="edge">
<title>rubble&#45;&gt;waitForInput</title>
<path fill="none" stroke="black" d="M340.87,-36.16C338.45,-46.27 334.42,-59.01 328.05,-69 325.54,-72.93 322.48,-76.71 319.19,-80.24"/>
<polygon fill="black" stroke="black" points="316.46,-78.02 311.78,-87.52 321.37,-83.01 316.46,-78.02"/>
</g>
<!-- zuma&#45;&gt;waitForInput -->
<g id="edge14" class="edge">
<title>zuma&#45;&gt;waitForInput</title>
<path fill="none" stroke="black" d="M426.19,-34.82C416.63,-45.7 402.76,-59.79 388.05,-69 375.6,-76.79 361.19,-83.16 347.3,-88.23"/>
<polygon fill="black" stroke="black" points="346.1,-84.94 337.81,-91.53 348.4,-91.55 346.1,-84.94"/>
</g>
<!-- sky&#45;&gt;waitForInput -->
<g id="edge15" class="edge">
<title>sky&#45;&gt;waitForInput</title>
<path fill="none" stroke="black" d="M506.78,-34.03C495.89,-45.39 479.47,-60.45 462.05,-69 432.67,-83.41 397.69,-91.89 366.96,-96.88"/>
<polygon fill="black" stroke="black" points="366.07,-93.47 356.72,-98.44 367.13,-100.39 366.07,-93.47"/>
</g>
</g>
</svg>
